<svg width="48" height="16" viewBox="0 0 48 16" fill="none" xmlns="http://www.w3.org/2000/svg">
<g clip-path="url(#clip0_1_4037)">
<path d="M20.7995 15.7692H16.9111L19.3432 0.28075H23.2313L20.7995 15.7692Z" fill="#00579F"/>
<path d="M34.8951 0.6594C34.1282 0.346014 32.9117 -3.8147e-06 31.4076 -3.8147e-06C27.5678 -3.8147e-06 24.8638 2.10895 24.8472 5.12412C24.8153 7.3487 26.7832 8.58429 28.255 9.32603C29.7593 10.084 30.2707 10.5787 30.2707 11.2543C30.2554 12.2919 29.0551 12.7702 27.9356 12.7702C26.3832 12.7702 25.5514 12.5236 24.2873 11.9463L23.7753 11.6989L23.2312 15.1757C24.1432 15.6036 25.8234 15.9834 27.5678 16C31.6477 16 34.3038 13.9237 34.3353 10.7105C34.3508 8.94739 33.3117 7.59639 31.0714 6.49242C29.7115 5.78374 28.8786 5.30588 28.8786 4.58078C28.8946 3.9216 29.583 3.24643 31.1182 3.24643C32.3823 3.21336 33.3111 3.5263 34.0146 3.83947L34.3663 4.00394L34.8951 0.6594Z" fill="#00579F"/>
<path d="M40.0637 10.2822C40.384 9.39239 41.6161 5.94864 41.6161 5.94864C41.6 5.98171 41.9357 5.04243 42.1277 4.4658L42.3995 5.80038C42.3995 5.80038 43.1358 9.5078 43.2957 10.2822C42.688 10.2822 40.8318 10.2822 40.0637 10.2822ZM44.8634 0.28075H41.8558C40.9283 0.28075 40.2236 0.56063 39.8235 1.56583L34.0479 15.769H38.1278C38.1278 15.769 38.7995 13.8573 38.9438 13.4456C39.3914 13.4456 43.3603 13.4456 43.9361 13.4456C44.0478 13.9894 44.4001 15.769 44.4001 15.769H48.0003L44.8634 0.28075Z" fill="#00579F"/>
<path d="M13.6634 0.28075L9.85548 10.8424L9.43936 8.70035C8.73535 6.22874 6.52742 3.54338 4.06348 2.20815L7.55143 15.7527H11.6632L17.775 0.28075H13.6634Z" fill="#00579F"/>
<path d="M6.31995 0.28075H0.0640009L0 0.593698C4.88003 1.879 8.11199 4.97716 9.43985 8.70101L8.07988 1.58269C7.85598 0.59348 7.16792 0.313381 6.31995 0.28075Z" fill="#F4A622"/>
</g>
<defs>
<clipPath id="clip0_1_4037">
<rect width="48" height="16" fill="white"/>
</clipPath>
</defs>
</svg>
